<?xml version="1.0" encoding="utf-8"?>
<!-- Generator: Adobe Illustrator 24.0.1, SVG Export Plug-In . SVG Version: 6.00 Build 0)  -->
<svg version="1.1" id="Layer_1" xmlns="http://www.w3.org/2000/svg" xmlns:xlink="http://www.w3.org/1999/xlink" x="0px" y="0px"
	 viewBox="0 0 500 500" style="enable-background:new 0 0 500 500;" xml:space="preserve">
<style type="text/css">
	.st0{fill:#8F7763;}
	.st1{fill:#ACC4A6;}
	.st2{fill:#F68E58;}
	.st3{fill:#FBAF34;}
	.st4{fill:#EB6325;}
</style>
<g>
	<polygon class="st0" points="339,165.53 344.08,136.39 343.95,136.28 327.43,155.29 320.66,149.3 346.19,120.46 354.13,127.48 
		349.04,156.55 349.17,156.65 365.66,137.69 372.43,143.67 346.9,172.52 	"/>
	<polygon class="st1" points="351.24,178.93 383.91,158.52 397.64,180.48 390.95,184.66 381.98,170.31 375.84,174.14 384.32,187.71 
		378,191.67 369.52,178.1 362.74,182.34 372.22,197.52 365.48,201.73 	"/>
	<polygon class="st2" points="377.39,243.02 375.22,234.09 398.75,220.52 398.71,220.36 371.58,219.12 369.39,210.13 404.24,190.39 
		406.61,200.12 383.14,212.1 383.18,212.26 409.71,212.87 412,222.28 388.73,235.06 388.77,235.21 415.14,235.18 417.43,244.59 	"/>
	<path class="st0" d="M373.11,283.77c2.16-11.67,11.91-18.88,23.79-16.68c12.15,2.25,18.24,12.68,16.1,24.23
		c-0.98,5.3-3.97,10.67-8.19,13.15l-5.06-7.36c2.67-1.27,4.36-4.12,4.89-7c1.18-6.37-2.9-11.83-9.59-13.07
		c-6.91-1.28-12.44,2.29-13.61,8.6c-0.66,3.59,0.42,6.72,2.37,8.75l-7.17,5.25C373.4,295.61,371.92,290.13,373.11,283.77"/>
	<path class="st1" d="M361.29,316.03c5.61-10.64,17.08-14.68,27.87-9c10.93,5.76,13.66,17.28,8.05,27.92
		c-5.63,10.69-16.67,14.96-27.6,9.21C358.82,338.48,355.66,326.73,361.29,316.03 M389.8,331.05c3.04-5.78,0.69-12.06-5.28-15.21
		c-6.16-3.25-12.7-1.59-15.72,4.15c-3.01,5.73-0.71,12.11,5.45,15.36C380.22,338.49,386.75,336.83,389.8,331.05"/>
	<polygon class="st3" points="337.41,349.46 343.92,342.8 381.66,359.33 374.35,366.79 348.58,354.07 348.43,354.22 361.75,379.67 
		354.56,387.03 	"/>
	<polygon class="st1" points="325.89,360.1 345.24,393.42 322.84,406.43 318.88,399.6 333.52,391.11 329.88,384.85 316.05,392.88 
		312.3,386.43 326.13,378.4 322.12,371.48 306.64,380.47 302.64,373.6 	"/>
	<polygon class="st0" points="271.71,382.96 292.61,403.91 292.77,403.87 286.75,379.4 295.54,377.32 304.42,414.81 294.1,417.26 
		273.26,396.36 273.1,396.39 279.11,420.81 270.32,422.9 261.43,385.4 	"/>
	<path class="st3" d="M226.96,383.28l2.27,7.8l14.85,1.39l3.53-7.27l10.08,0.95L238,423.01l-9-0.84l-12.34-39.86L226.96,383.28z
		 M234.62,412.36l6.11-12.71l-9.64-0.9L234.62,412.36z"/>
	<polygon class="st1" points="190.71,370.94 194.68,400.26 194.82,400.33 204.83,377.21 213.09,380.87 197.48,416.08 187.78,411.78 
		183.84,382.54 183.69,382.47 173.7,405.54 165.44,401.89 181.05,366.66 	"/>
	<polygon class="st2" points="144.06,375.76 163.6,352.26 170.76,358.2 151.21,381.72 159.57,388.67 154.49,394.78 130.61,374.92 
		135.69,368.8 	"/>
	<path class="st0" d="M137.97,318.33c5.95,10.26,3.25,22.08-7.2,28.15c-10.68,6.2-22.1,2.25-28-7.91
		c-2.7-4.66-3.93-10.68-2.34-15.32l8.63,2.29c-1.2,2.7-0.63,5.97,0.85,8.5c3.25,5.6,9.9,7.1,15.79,3.68
		c6.07-3.52,7.95-9.83,4.72-15.39c-1.83-3.15-4.69-4.83-7.48-5.09l2.02-8.67C130.03,309.53,134.72,312.72,137.97,318.33"/>
	<path class="st1" d="M125.75,287.21c2.88,11.68-3.01,22.32-14.85,25.24c-11.99,2.96-21.68-3.84-24.56-15.52
		c-2.89-11.73,2.53-22.25,14.52-25.21C112.69,268.8,122.86,275.48,125.75,287.21 M94.47,294.92c1.56,6.34,7.49,9.47,14.04,7.87
		c6.77-1.67,10.55-7.25,8.99-13.54c-1.55-6.29-7.5-9.53-14.27-7.86C96.69,283,92.91,288.58,94.47,294.92"/>
	<polygon class="st3" points="123.22,230.06 96.15,226.87 96.13,227.03 122.13,239.96 121.42,246.46 93.26,253.15 93.24,253.32 
		120.36,256.08 119.4,264.79 81.11,260.58 82.55,247.43 108.07,241.43 108.09,241.21 84.45,230.18 85.92,216.82 124.22,221.03 	"/>
	<polygon class="st1" points="143.14,183.73 119.35,170.4 119.27,170.55 138.34,192.45 135.2,198.18 106.61,193.59 106.53,193.73 
		130.53,206.67 126.31,214.35 92.54,195.79 98.91,184.2 124.79,188.43 124.89,188.23 107.28,168.98 113.75,157.21 147.52,175.77 	
		"/>
	<path class="st0" d="M164.12,162.4c-7.53,6.76-16.45,6.27-22.62-0.62l-16.01-17.87l6.89-6.17l15.5,17.3
		c2.76,3.08,6.8,4.57,10.69,1.09c3.93-3.53,2.84-7.67,0.09-10.75l-15.51-17.3l6.93-6.21l16.02,17.86
		C172.27,146.63,171.62,155.69,164.12,162.4"/>
	<polygon class="st2" points="202.55,137.34 178.01,120.82 177.86,120.89 188.48,143.73 180.26,147.47 164.32,112.4 173.97,108.01 
		198.45,124.5 198.6,124.43 188,101.63 196.22,97.9 212.16,132.97 	"/>
	
		<rect x="217.7" y="92.71" transform="matrix(0.9836 -0.1805 0.1805 0.9836 -16.5553 41.9687)" class="st1" width="9.36" height="38.52"/>
	<polygon class="st3" points="289.29,118.18 285.23,133.99 276.21,131.68 280.28,115.87 271.79,90.76 282.69,93.56 287.1,109.42 
		298.61,97.66 309.15,100.37 	"/>
	<polygon class="st4" points="254.98,90.34 254.98,78.23 245.6,78.23 245.6,90.25 234.79,90.16 234.72,99.31 245.6,99.4 
		245.33,128.79 254.64,128.87 254.91,99.48 265.79,99.58 265.86,90.43 	"/>
	<polygon class="st4" points="254.98,90.34 254.98,78.23 245.6,78.23 245.6,90.25 234.79,90.16 234.72,99.31 245.6,99.4 
		245.33,128.79 254.64,128.87 254.91,99.48 265.79,99.58 265.86,90.43 	"/>
</g>
</svg>
